<?xml version="1.0" standalone="no"?>
<!DOCTYPE svg PUBLIC "-//W3C//DTD SVG 20010904//EN"
 "http://www.w3.org/TR/2001/REC-SVG-20010904/DTD/svg10.dtd">
<svg version="1.0" xmlns="http://www.w3.org/2000/svg"
 width="700.000000pt" height="700.000000pt" viewBox="0 0 700.000000 700.000000"
 preserveAspectRatio="xMidYMid meet">
<metadata>
Created by potrace 1.14, written by Peter Selinger 2001-2017
</metadata>
<g transform="translate(0.000000,700.000000) scale(0.100000,-0.100000)"
fill="#000000" stroke="none">
<path d="M2933 6899 l-62 -30 35 -82 c37 -86 135 -327 177 -437 67 -174 201
-569 195 -576 -2 -1 -24 11 -48 27 -201 136 -499 205 -752 174 -135 -16 -314
-75 -434 -141 -69 -38 -186 -120 -213 -148 l-23 -24 34 -7 c54 -12 228 -98
312 -154 75 -51 166 -125 256 -210 77 -72 173 -147 229 -179 l54 -31 -48 -28
c-141 -83 -272 -209 -362 -346 -113 -172 -177 -352 -199 -554 l-6 -62 93 40
c153 67 310 101 514 114 44 2 125 7 180 10 121 7 210 27 289 66 33 16 60 29
60 29 1 0 2 -53 3 -117 2 -229 66 -428 203 -631 79 -117 215 -254 314 -316
l29 -19 64 69 c142 153 269 393 299 564 2 14 9 49 15 79 18 88 14 277 -8 376
-2 11 -6 29 -8 40 -3 11 -11 43 -20 70 -8 28 -15 55 -15 60 0 6 26 10 63 9 79
-1 185 22 365 80 126 41 183 57 257 72 81 16 204 25 301 22 63 -2 114 -2 114
1 0 8 -72 135 -109 191 -157 240 -442 438 -709 490 -60 12 -62 14 -45 30 10 9
68 70 128 135 159 169 164 174 235 236 81 69 151 114 259 168 l83 42 -70 44
c-135 84 -222 122 -371 161 -79 21 -124 26 -256 29 -152 4 -170 2 -315 -30
-46 -10 -154 -52 -222 -86 -111 -55 -190 -111 -285 -202 -55 -53 -84 -75 -88
-66 -2 8 -38 111 -78 229 -97 282 -187 514 -303 782 -16 37 -33 67 -39 67 -5
0 -38 -14 -72 -30z"/>
<path d="M5138 5816 c-172 -76 -243 -122 -370 -238 -74 -66 -91 -88 -68 -88
20 0 185 -105 260 -165 199 -160 319 -321 437 -580 25 -55 65 -142 89 -194 24
-51 42 -96 40 -100 -3 -4 -42 -2 -88 5 -46 6 -108 14 -138 18 -30 3 -75 9
-100 13 -84 13 -302 7 -386 -10 -44 -9 -150 -38 -235 -66 -85 -27 -173 -54
-195 -60 l-41 -11 7 -41 c4 -23 8 -97 8 -166 -1 -314 -113 -623 -318 -873 -53
-65 -249 -260 -261 -260 -12 0 -224 152 -282 202 -223 193 -383 452 -449 725
-25 106 -36 136 -46 129 -10 -6 -111 -15 -252 -21 -184 -9 -268 -21 -384 -56
-76 -23 -146 -56 -370 -173 l-148 -78 6 103 c13 204 17 265 21 304 13 116 18
151 21 156 2 4 6 24 10 45 9 59 60 208 105 303 55 118 153 261 243 356 l75 80
-67 65 c-134 129 -247 211 -366 265 -58 27 -204 76 -463 156 -29 9 -46 29 -25
29 4 0 27 19 52 42 25 22 67 60 93 84 27 24 46 44 44 44 -3 0 -56 -18 -118
-40 -637 -229 -1073 -685 -1299 -1360 -48 -144 -72 -231 -106 -395 -7 -36 -34
-219 -39 -265 -3 -30 -8 -64 -10 -75 -19 -92 -27 -652 -11 -785 6 -57 11 -90
31 -209 39 -233 142 -533 263 -766 92 -178 249 -411 381 -565 78 -91 284 -297
366 -365 33 -27 62 -52 65 -55 3 -3 48 -37 100 -76 352 -261 724 -447 1160
-578 85 -25 267 -70 325 -81 17 -2 41 -7 55 -10 40 -8 201 -34 250 -39 186
-22 281 -27 480 -28 192 0 332 7 490 27 82 10 302 45 309 49 3 2 22 7 41 10
19 3 63 12 97 21 35 9 73 18 85 20 33 6 177 51 291 91 389 135 750 335 1065
587 114 92 339 306 418 397 91 106 304 396 304 414 0 2 19 35 42 72 148 243
298 666 334 939 3 28 8 52 9 55 18 31 27 566 12 740 -17 191 -51 424 -83 560
-9 36 -17 74 -19 84 -31 145 -122 400 -207 575 -236 489 -623 855 -1107 1046
-84 33 -315 106 -330 104 -3 0 -49 -20 -103 -43z"/>
</g>
</svg>
